<svg width="16" height="16" viewBox="0 0 16 16" fill="none" xmlns="http://www.w3.org/2000/svg">
<path fill-rule="evenodd" clip-rule="evenodd" d="M14.7709 6.02972C15.1851 6.02972 15.5209 6.36552 15.5209 6.77973L15.521 8.32183C15.521 8.73604 15.1852 9.07184 14.771 9.07184L13.8188 9.07192C13.679 9.60608 13.469 10.1104 13.1966 10.5755L13.8694 11.2483C14.1623 11.5412 14.1623 12.0161 13.8694 12.309L12.779 13.3994C12.4861 13.6923 12.0113 13.6923 11.7184 13.3994L11.0455 12.7266C10.5805 12.999 10.0761 13.2089 9.54198 13.3487V14.3008C9.54198 14.715 9.20625 15.0508 8.79197 15.0508H7.24995C6.83574 15.0508 6.49993 14.715 6.49993 14.3008V13.3487C5.96585 13.2088 5.4615 12.999 4.99647 12.7266L4.32367 13.3994C4.03076 13.6923 3.55594 13.6923 3.26304 13.3994L2.17259 12.309C1.87969 12.0161 1.87969 11.5412 2.17259 11.2483L2.8454 10.5756C2.5729 10.1105 2.36303 9.60616 2.22319 9.07214H1.27101C0.856801 9.07214 0.520996 8.73641 0.520996 8.32213V6.78003C0.520996 6.36582 0.856801 6.03002 1.27101 6.03002H2.22289C2.36273 5.49593 2.57252 4.99151 2.84495 4.52641L2.17214 3.85375C1.87924 3.56085 1.87924 3.08595 2.17214 2.79305L3.26252 1.7026C3.55542 1.40962 4.03032 1.40962 4.32322 1.70252L4.99588 2.37518C5.46106 2.10268 5.96555 1.89266 6.49978 1.75282V0.800792C6.49978 0.386511 6.83559 0.0507812 7.2498 0.0507812H8.79182C9.2061 0.0507812 9.54183 0.386511 9.54183 0.800792V1.7529C10.076 1.89266 10.5804 2.10261 11.0455 2.37503L11.7182 1.7023C12.0112 1.40932 12.486 1.40932 12.779 1.70223L13.8694 2.79268C14.1623 3.08565 14.1623 3.56048 13.8694 3.85338L13.1967 4.52611C13.4692 4.99121 13.679 5.49563 13.8189 6.02979L14.7709 6.02972ZM8.02238 10.3026C9.54227 10.3026 10.7744 9.07048 10.7744 7.55059C10.7744 6.03071 9.54227 4.79859 8.02238 4.79859C6.50249 4.79859 5.27038 6.03071 5.27038 7.55059C5.27038 9.07048 6.50249 10.3026 8.02238 10.3026Z" fill="#8F8F8F"/>
</svg>
