<svg width="119" height="26" viewBox="0 0 119 26" fill="none" xmlns="http://www.w3.org/2000/svg">
<path d="M112.625 22.3046C114.187 22.3046 115.526 21.914 116.64 21.1327C117.921 20.2369 118.578 18.914 118.609 17.164C118.651 14.7057 117.479 12.94 115.093 11.8671C113.937 11.4505 112.567 11.138 110.984 10.9296C109.401 10.7213 108.244 10.4817 107.515 10.2109C106.401 9.81506 105.843 9.26298 105.843 8.55465C105.843 8.04423 105.984 7.64319 106.265 7.35152C106.546 7.05986 106.937 6.91403 107.437 6.91403H115.89L117.406 3.24216H107.437C105.812 3.24216 104.432 3.7057 103.296 4.63278C102.057 5.63278 101.437 6.94007 101.437 8.55465C101.437 10.6588 102.442 12.19 104.453 13.1484C105.609 13.5859 107.127 13.9583 109.007 14.2656C110.888 14.5729 112.213 14.8984 112.984 15.2421C113.807 15.6171 114.213 16.2421 114.203 17.1171C114.213 17.6379 114.067 18.039 113.765 18.3202C113.484 18.5286 113.104 18.6327 112.625 18.6327L97.3589 18.6279L95.8433 22.2997L112.625 22.3046Z" fill="#FD8301"/>
<path d="M95.1091 23.8046H95.5758H96.5622H97.3727H101.437H103.772L102.802 21.6812L94.0984 2.63439L93.6979 1.75779H92.7341H89.5622H88.5984L88.1979 2.63439L79.4948 21.6812L78.5246 23.8046H80.8591H95.1091ZM92.6559 17.039H89.72L91.1634 13.581L92.6559 17.039Z" fill="#FD8301" stroke="#0C1016" stroke-width="3"/>
<path fill-rule="evenodd" clip-rule="evenodd" d="M77.1091 16.4452H70.1716L71.7341 12.664H77.1091C77.4424 12.664 77.7549 12.5182 78.0466 12.2265C78.4737 11.8098 78.6872 11.0182 78.6872 9.85151C78.6872 8.67444 78.4737 7.87756 78.0466 7.4609C77.7549 7.16923 77.4424 7.0234 77.1091 7.0234H70.1716V16.4452V22.3046H65.4685V3.25779H77.1091C78.932 3.25779 80.4684 3.87758 81.7184 5.11716C82.833 6.24215 83.3903 7.82027 83.3903 9.85152C83.3903 11.8828 82.833 13.4557 81.7184 14.5702C80.4684 15.8202 78.932 16.4452 77.1091 16.4452Z" fill="#FD8301"/>
<path d="M26.0943 22.3556C26.0943 22.3556 25.6708 21.4535 25.5208 20.7785C25.3708 20.1036 25.234 18.4845 25.234 18.4845L9.21872 18.539C8.07289 18.539 7.06768 18.1067 6.2031 17.2421C5.20311 16.2421 4.70311 14.7057 4.70311 12.6328C4.70311 10.7578 5.20311 9.32027 6.2031 8.32027C7.06768 7.45569 8.07289 7.0234 9.21872 7.0234L23.5135 7.0145C23.5135 7.0145 24.1882 5.67566 24.8039 5.00725C25.2029 4.57411 26.381 3.28675 26.381 3.28675L9.21872 3.25779C6.58331 3.25779 4.35936 4.16924 2.54687 5.99215C0.848955 7.67965 0 9.89318 0 12.6328C0 15.5702 0.848955 17.8827 2.54687 19.5702C4.35936 21.3931 6.58331 22.3046 9.21872 22.3046L26.0943 22.3556Z" fill="white"/>
<path d="M62.7966 22.3046V3.25779H59.5153L50.2029 18.414L52.2497 21.7108L58.406 11.9453V22.3046H62.7966Z" fill="#FD8301"/>
<path d="M30.4531 24.2733C33.4749 24.2733 36.084 23.2117 38.1854 21.0999C40.2452 19.0508 41.1718 16.2021 41.1718 12.789C41.1718 12.1528 41.2091 11.4662 41.2497 10.7183C41.2529 10.6585 41.2562 10.5984 41.2594 10.5379C41.3025 9.73998 41.3458 8.8799 41.3317 8.04884C41.3054 6.48901 41.0853 4.54478 39.7793 3.24395C38.4522 1.91173 36.5426 1.59733 34.9668 1.52126C34.1422 1.48145 33.3063 1.50445 32.5428 1.53433C32.3628 1.54137 32.1884 1.54871 32.019 1.55583C31.4465 1.57989 30.9314 1.60154 30.4531 1.60154H28.2343C25.2124 1.60154 22.6032 2.66327 20.5019 4.77517C18.4601 6.80632 17.5156 9.54159 17.5156 12.789C17.5156 13.2692 17.5016 13.8219 17.4868 14.4085C17.458 15.5466 17.426 16.8126 17.4866 17.9252C17.5766 19.5785 17.8763 21.5835 19.1581 22.8653C20.5087 24.2159 22.379 24.4574 23.907 24.4725C24.6989 24.4803 25.5047 24.4258 26.2318 24.3746C26.2662 24.3722 26.3004 24.3698 26.3344 24.3674C27.0433 24.3174 27.6672 24.2733 28.2343 24.2733H30.4531Z" fill="white" stroke="#090C10" stroke-width="3"/>
<path d="M46.0936 22.3046V11.9453L49.4686 17.2421L51.5155 13.9609L44.9842 3.25779H41.703V22.3046H46.0936Z" fill="white"/>
<path fill-rule="evenodd" clip-rule="evenodd" d="M36.7334 6.04094L32.1712 15.6722L26.8994 10.4003L36.7334 6.04094Z" fill="#C74923"/>
<path fill-rule="evenodd" clip-rule="evenodd" d="M22.54 20.2343L32.1713 15.6722L26.8994 10.4003L22.54 20.2343Z" fill="#1353A2"/>
<circle cx="29.5353" cy="13.0363" r="1.00363" transform="rotate(45 29.5353 13.0363)" fill="white"/>
</svg>
