<?xml version="1.0" encoding="UTF-8"?>
<svg width="39px" height="15px" viewBox="0 0 39 15" version="1.1" xmlns="http://www.w3.org/2000/svg" xmlns:xlink="http://www.w3.org/1999/xlink">
    <title>Group 8</title>
    <defs>
        <filter x="-9.4%" y="-12.5%" width="118.8%" height="125.0%" filterUnits="objectBoundingBox" id="filter-1">
            <feOffset dx="0" dy="0" in="SourceAlpha" result="shadowOffsetOuter1"></feOffset>
            <feGaussianBlur stdDeviation="0.5" in="shadowOffsetOuter1" result="shadowBlurOuter1"></feGaussianBlur>
            <feColorMatrix values="0 0 0 0 0   0 0 0 0 0   0 0 0 0 0  0 0 0 0.3 0" type="matrix" in="shadowBlurOuter1" result="shadowMatrixOuter1"></feColorMatrix>
            <feMerge>
                <feMergeNode in="shadowMatrixOuter1"></feMergeNode>
                <feMergeNode in="SourceGraphic"></feMergeNode>
            </feMerge>
        </filter>
    </defs>
    <g id="ОСАГО" stroke="none" stroke-width="1" fill="none" fill-rule="evenodd">
        <g id="Часто-задаваемые-вопросы-1-Copy-3" transform="translate(-455, -261)">
            <g id="Шапка-Copy-3" transform="translate(0, -1)">
                <g id="Group-12" transform="translate(142, 116)">
                    <g id="Group-Copy" transform="translate(0, 64)">
                        <g id="Group-17-Copy-15" transform="translate(15, 56)">
                            <g id="Group-8" transform="translate(299, 27.5)">
                                <g id="Group-9" filter="url(#filter-1)">
                                    <rect id="Rectangle" fill="#FFFFFF" x="0" y="0" width="16" height="4"></rect>
                                    <rect id="Rectangle-Copy-2" fill="#0B48B8" x="0" y="4" width="16" height="4"></rect>
                                    <rect id="Rectangle-Copy-3" fill="#E53A34" x="0" y="8" width="16" height="4"></rect>
                                </g>
                                <g id="RUS" transform="translate(21, 2.3672)" fill="#000000" fill-rule="nonzero">
                                    <path d="M0,7.09054716 L1.26284198,7.09054716 L1.26284198,4.22327481 L1.90461413,4.22327481 C2.62919559,4.24397713 2.95008167,4.53380972 3.15710494,5.44471213 C3.34342589,6.31420988 3.51939567,6.88352389 3.62290731,7.09054716 L4.92715394,7.09054716 C4.79258881,6.8214169 4.60626786,6.01402613 4.37854226,5.14452838 C4.21292364,4.47170274 3.91273989,3.98519804 3.40553287,3.79887709 L3.40553287,3.7678236 C4.06800735,3.540098 4.67872601,2.92937934 4.67872601,2.02882809 C4.67872601,1.4284606 4.46135157,0.9419559 4.07835851,0.621069824 C3.60220498,0.227725602 2.92937934,0.0621069824 1.92531646,0.0621069824 C1.19038383,0.0621069824 0.486504696,0.124213965 0,0.217374439 L0,7.09054716 Z M1.26284198,1.08687219 C1.38705594,1.0558187 1.64583503,1.02476521 2.04953042,1.02476521 C2.87762352,1.02476521 3.40553287,1.38705594 3.40553287,2.14269089 C3.40553287,2.83621886 2.87762352,3.29167007 2.01847693,3.29167007 L1.26284198,3.29167007 L1.26284198,1.08687219 Z" id="Shape"></path>
                                    <path d="M5.83805635,0.113862801 L5.83805635,4.109412 C5.83805635,6.30385872 6.88352389,7.20440996 8.49830543,7.20440996 C10.175194,7.20440996 11.2827685,6.2521029 11.2827685,4.09906084 L11.2827685,0.113862801 L10.0095753,0.113862801 L10.0095753,4.18187015 C10.0095753,5.54822376 9.46096366,6.17964475 8.53971009,6.17964475 C7.6805635,6.17964475 7.11124949,5.54822376 7.11124949,4.18187015 L7.11124949,0.113862801 L5.83805635,0.113862801 Z" id="Path"></path>
                                    <path d="M12.4317477,6.75930992 C12.8147407,6.99738669 13.5807268,7.20440996 14.3260106,7.20440996 C16.1167619,7.20440996 16.9655574,6.23140057 16.9655574,5.10312372 C16.9655574,4.09906084 16.3858922,3.48834218 15.174806,3.03289098 C14.2432013,2.67060024 13.8395059,2.42217232 13.8395059,1.8839118 C13.8395059,1.46986525 14.1810943,1.04546754 14.9884851,1.04546754 C15.6406084,1.04546754 16.1271131,1.24213965 16.3858922,1.37670478 L16.6860759,0.351939567 C16.3237852,0.16561862 15.7751735,0 15.0195386,0 C13.4979175,0 12.5456105,0.85914659 12.5456105,2.00812577 C12.5456105,3.01218865 13.2805431,3.62290731 14.4398734,4.03695386 C15.3197223,4.35783993 15.6716619,4.66837485 15.6716619,5.1962842 C15.6716619,5.7655982 15.2162107,6.14859126 14.4088199,6.14859126 C13.7566966,6.14859126 13.1252756,5.94156799 12.7215802,5.70349122 L12.4317477,6.75930992 Z" id="Path"></path>
                                </g>
                            </g>
                        </g>
                    </g>
                </g>
            </g>
        </g>
    </g>
</svg>